<mxfile host="app.diagrams.net" agent="Mozilla/5.0 (Windows NT 10.0; Win64; x64) AppleWebKit/537.36 (KHTML, like Gecko) Chrome/131.0.0.0 Safari/537.36" version="25.0.3">
  <diagram id="C5RBs43oDa-KdzZeNtuy" name="Page-1">
    <mxGraphModel dx="2790" dy="118" grid="1" gridSize="10" guides="1" tooltips="1" connect="1" arrows="1" fold="1" page="1" pageScale="1" pageWidth="827" pageHeight="1169" math="0" shadow="0">
      <root>
        <mxCell id="WIyWlLk6GJQsqaUBKTNV-0" />
        <mxCell id="WIyWlLk6GJQsqaUBKTNV-1" parent="WIyWlLk6GJQsqaUBKTNV-0" />
        <mxCell id="E6n0hDkASvJldRAavrut-643" value="" style="fontSize=12;html=1;endArrow=ERzeroToMany;startArrow=ERmandOne;rounded=0;exitX=1;exitY=0.5;exitDx=0;exitDy=0;edgeStyle=orthogonalEdgeStyle;entryX=0.5;entryY=0;entryDx=0;entryDy=0;" edge="1" parent="WIyWlLk6GJQsqaUBKTNV-1">
          <mxGeometry width="100" height="100" relative="1" as="geometry">
            <mxPoint x="510" y="1210" as="sourcePoint" />
            <mxPoint x="690" y="1280" as="targetPoint" />
          </mxGeometry>
        </mxCell>
        <mxCell id="E6n0hDkASvJldRAavrut-644" value="" style="fontSize=12;html=1;endArrow=ERzeroToMany;startArrow=ERmandOne;rounded=0;entryX=0.5;entryY=0;entryDx=0;entryDy=0;edgeStyle=orthogonalEdgeStyle;" edge="1" parent="WIyWlLk6GJQsqaUBKTNV-1">
          <mxGeometry width="100" height="100" relative="1" as="geometry">
            <mxPoint x="690" y="1490" as="sourcePoint" />
            <mxPoint x="690" y="1550" as="targetPoint" />
          </mxGeometry>
        </mxCell>
        <mxCell id="E6n0hDkASvJldRAavrut-645" value="" style="fontSize=12;html=1;endArrow=ERzeroToMany;startArrow=ERmandOne;rounded=0;entryX=0.5;entryY=0;entryDx=0;entryDy=0;exitX=0.499;exitY=0.981;exitDx=0;exitDy=0;edgeStyle=orthogonalEdgeStyle;exitPerimeter=0;" edge="1" parent="WIyWlLk6GJQsqaUBKTNV-1">
          <mxGeometry width="100" height="100" relative="1" as="geometry">
            <mxPoint x="689.8200000000006" y="1629.0500000000002" as="sourcePoint" />
            <mxPoint x="690" y="1670" as="targetPoint" />
          </mxGeometry>
        </mxCell>
        <mxCell id="E6n0hDkASvJldRAavrut-646" value="" style="fontSize=12;html=1;endArrow=ERzeroToMany;startArrow=ERmandOne;rounded=0;exitX=0.5;exitY=0;exitDx=0;exitDy=0;edgeStyle=orthogonalEdgeStyle;" edge="1" parent="WIyWlLk6GJQsqaUBKTNV-1">
          <mxGeometry width="100" height="100" relative="1" as="geometry">
            <mxPoint x="690" y="1830" as="sourcePoint" />
            <mxPoint x="690" y="1790" as="targetPoint" />
          </mxGeometry>
        </mxCell>
        <mxCell id="E6n0hDkASvJldRAavrut-647" value="" style="fontSize=12;html=1;endArrow=ERzeroToMany;startArrow=ERmandOne;rounded=0;exitX=0.5;exitY=0;exitDx=0;exitDy=0;edgeStyle=orthogonalEdgeStyle;" edge="1" parent="WIyWlLk6GJQsqaUBKTNV-1">
          <mxGeometry width="100" height="100" relative="1" as="geometry">
            <mxPoint x="690" y="1990" as="sourcePoint" />
            <mxPoint x="690" y="1950" as="targetPoint" />
          </mxGeometry>
        </mxCell>
        <mxCell id="E6n0hDkASvJldRAavrut-648" value="" style="fontSize=12;html=1;endArrow=ERzeroToMany;startArrow=ERmandOne;rounded=0;entryX=1.003;entryY=0.681;entryDx=0;entryDy=0;exitX=-0.005;exitY=1.093;exitDx=0;exitDy=0;edgeStyle=orthogonalEdgeStyle;exitPerimeter=0;entryPerimeter=0;" edge="1" parent="WIyWlLk6GJQsqaUBKTNV-1" target="E6n0hDkASvJldRAavrut-667">
          <mxGeometry width="100" height="100" relative="1" as="geometry">
            <mxPoint x="809.1000000000004" y="1422.79" as="sourcePoint" />
            <mxPoint x="776.94" y="1422.8" as="targetPoint" />
          </mxGeometry>
        </mxCell>
        <mxCell id="E6n0hDkASvJldRAavrut-649" value="" style="edgeStyle=orthogonalEdgeStyle;fontSize=12;html=1;endArrow=ERmandOne;startArrow=ERmandOne;rounded=0;entryX=0.427;entryY=-0.022;entryDx=0;entryDy=0;exitX=0.995;exitY=-0.135;exitDx=0;exitDy=0;exitPerimeter=0;entryPerimeter=0;" edge="1" parent="WIyWlLk6GJQsqaUBKTNV-1">
          <mxGeometry width="100" height="100" relative="1" as="geometry">
            <mxPoint x="779.1000000000004" y="1305.95" as="sourcePoint" />
            <mxPoint x="1116.8600000000001" y="1458.02" as="targetPoint" />
          </mxGeometry>
        </mxCell>
        <mxCell id="E6n0hDkASvJldRAavrut-650" value="" style="edgeStyle=orthogonalEdgeStyle;fontSize=12;html=1;endArrow=ERzeroToMany;startArrow=ERmandOne;rounded=0;entryX=0.5;entryY=0;entryDx=0;entryDy=0;" edge="1" parent="WIyWlLk6GJQsqaUBKTNV-1">
          <mxGeometry width="100" height="100" relative="1" as="geometry">
            <mxPoint x="1130" y="1550" as="sourcePoint" />
            <mxPoint x="1130.0000000000005" y="1830" as="targetPoint" />
          </mxGeometry>
        </mxCell>
        <mxCell id="E6n0hDkASvJldRAavrut-651" value="" style="fontSize=12;html=1;endArrow=ERzeroToMany;startArrow=ERmandOne;rounded=0;exitX=1;exitY=0.5;exitDx=0;exitDy=0;edgeStyle=elbowEdgeStyle;entryX=0;entryY=0.5;entryDx=0;entryDy=0;" edge="1" parent="WIyWlLk6GJQsqaUBKTNV-1">
          <mxGeometry width="100" height="100" relative="1" as="geometry">
            <mxPoint x="780" y="1905" as="sourcePoint" />
            <mxPoint x="1040" y="1905" as="targetPoint" />
          </mxGeometry>
        </mxCell>
        <mxCell id="E6n0hDkASvJldRAavrut-652" value="" style="fontSize=12;html=1;endArrow=ERzeroToMany;startArrow=ERmandOne;rounded=0;exitX=0.989;exitY=0.15;exitDx=0;exitDy=0;edgeStyle=elbowEdgeStyle;exitPerimeter=0;entryX=-0.01;entryY=0.12;entryDx=0;entryDy=0;entryPerimeter=0;" edge="1" parent="WIyWlLk6GJQsqaUBKTNV-1">
          <mxGeometry width="100" height="100" relative="1" as="geometry">
            <mxPoint x="778.0200000000004" y="1848" as="sourcePoint" />
            <mxPoint x="838.2000000000003" y="1847.6000000000001" as="targetPoint" />
          </mxGeometry>
        </mxCell>
        <mxCell id="E6n0hDkASvJldRAavrut-653" value="" style="edgeStyle=orthogonalEdgeStyle;fontSize=12;html=1;endArrow=ERoneToMany;startArrow=ERmandOne;rounded=0;exitX=0.501;exitY=0.9;exitDx=0;exitDy=0;entryX=0.5;entryY=0;entryDx=0;entryDy=0;exitPerimeter=0;" edge="1" parent="WIyWlLk6GJQsqaUBKTNV-1">
          <mxGeometry width="100" height="100" relative="1" as="geometry">
            <mxPoint x="930.1799999999998" y="1687" as="sourcePoint" />
            <mxPoint x="930" y="1754" as="targetPoint" />
            <Array as="points">
              <mxPoint x="930" y="1710" />
              <mxPoint x="930" y="1710" />
            </Array>
          </mxGeometry>
        </mxCell>
        <mxCell id="E6n0hDkASvJldRAavrut-654" value="" style="fontSize=12;html=1;endArrow=ERzeroToMany;startArrow=ERmandOne;rounded=0;exitX=-0.016;exitY=0.054;exitDx=0;exitDy=0;edgeStyle=orthogonalEdgeStyle;entryX=0.5;entryY=0;entryDx=0;entryDy=0;exitPerimeter=0;" edge="1" parent="WIyWlLk6GJQsqaUBKTNV-1">
          <mxGeometry width="100" height="100" relative="1" as="geometry">
            <mxPoint x="597.1199999999999" y="1311.6200000000001" as="sourcePoint" />
            <mxPoint x="469.99999999999955" y="1420" as="targetPoint" />
          </mxGeometry>
        </mxCell>
        <mxCell id="E6n0hDkASvJldRAavrut-655" value="" style="fontSize=12;html=1;endArrow=ERzeroToMany;startArrow=ERmandOne;rounded=0;edgeStyle=orthogonalEdgeStyle;entryX=0.469;entryY=0.019;entryDx=0;entryDy=0;entryPerimeter=0;exitX=-0.012;exitY=0.051;exitDx=0;exitDy=0;exitPerimeter=0;" edge="1" parent="WIyWlLk6GJQsqaUBKTNV-1">
          <mxGeometry width="100" height="100" relative="1" as="geometry">
            <mxPoint x="597.8399999999997" y="1290.71" as="sourcePoint" />
            <mxPoint x="254.42000000000007" y="1412.66" as="targetPoint" />
            <Array as="points">
              <mxPoint x="254" y="1291" />
            </Array>
          </mxGeometry>
        </mxCell>
        <mxCell id="E6n0hDkASvJldRAavrut-656" value="" style="edgeStyle=orthogonalEdgeStyle;fontSize=12;html=1;endArrow=ERzeroToMany;startArrow=ERmandOne;rounded=0;entryX=0.464;entryY=0.996;entryDx=0;entryDy=0;exitX=-0.012;exitY=0.286;exitDx=0;exitDy=0;entryPerimeter=0;exitPerimeter=0;" edge="1" parent="WIyWlLk6GJQsqaUBKTNV-1">
          <mxGeometry width="100" height="100" relative="1" as="geometry">
            <mxPoint x="597.8400000000001" y="1898.5800000000002" as="sourcePoint" />
            <mxPoint x="253.51999999999998" y="1549.92" as="targetPoint" />
            <Array as="points">
              <mxPoint x="253" y="1899" />
            </Array>
          </mxGeometry>
        </mxCell>
        <mxCell id="E6n0hDkASvJldRAavrut-657" value="" style="edgeStyle=orthogonalEdgeStyle;fontSize=12;html=1;endArrow=ERoneToMany;startArrow=ERzeroToOne;rounded=0;fontFamily=Helvetica;fontColor=default;exitX=-0.004;exitY=0.151;exitDx=0;exitDy=0;exitPerimeter=0;entryX=0.068;entryY=1.036;entryDx=0;entryDy=0;entryPerimeter=0;" edge="1" parent="WIyWlLk6GJQsqaUBKTNV-1">
          <mxGeometry width="100" height="100" relative="1" as="geometry">
            <mxPoint x="599.2800000000002" y="2354.5299999999997" as="sourcePoint" />
            <mxPoint x="182.23999999999978" y="1550.72" as="targetPoint" />
          </mxGeometry>
        </mxCell>
        <mxCell id="E6n0hDkASvJldRAavrut-658" value="" style="fontSize=12;html=1;endArrow=ERoneToMany;startArrow=ERzeroToOne;rounded=0;fontFamily=Helvetica;fontColor=default;exitX=0.5;exitY=0;exitDx=0;exitDy=0;entryX=0.5;entryY=1;entryDx=0;entryDy=0;" edge="1" parent="WIyWlLk6GJQsqaUBKTNV-1">
          <mxGeometry width="100" height="100" relative="1" as="geometry">
            <mxPoint x="690" y="2140" as="sourcePoint" />
            <mxPoint x="690" y="2080" as="targetPoint" />
          </mxGeometry>
        </mxCell>
        <mxCell id="E6n0hDkASvJldRAavrut-659" value="" style="fontSize=12;html=1;endArrow=ERoneToMany;startArrow=ERzeroToOne;rounded=0;fontFamily=Helvetica;fontColor=default;exitX=1;exitY=0.5;exitDx=0;exitDy=0;entryX=1;entryY=0.5;entryDx=0;entryDy=0;edgeStyle=orthogonalEdgeStyle;" edge="1" parent="WIyWlLk6GJQsqaUBKTNV-1">
          <mxGeometry width="100" height="100" relative="1" as="geometry">
            <mxPoint x="780" y="2185" as="sourcePoint" />
            <mxPoint x="780" y="1935" as="targetPoint" />
            <Array as="points">
              <mxPoint x="800" y="2185" />
              <mxPoint x="800" y="1935" />
            </Array>
          </mxGeometry>
        </mxCell>
        <mxCell id="E6n0hDkASvJldRAavrut-660" value="" style="fontSize=12;html=1;endArrow=ERoneToMany;startArrow=ERzeroToOne;rounded=0;fontFamily=Helvetica;fontColor=default;exitX=1.001;exitY=0.918;exitDx=0;exitDy=0;entryX=-0.015;entryY=0.686;entryDx=0;entryDy=0;edgeStyle=orthogonalEdgeStyle;exitPerimeter=0;entryPerimeter=0;" edge="1" parent="WIyWlLk6GJQsqaUBKTNV-1">
          <mxGeometry width="100" height="100" relative="1" as="geometry">
            <mxPoint x="780.1799999999998" y="2257.54" as="sourcePoint" />
            <mxPoint x="837.3000000000002" y="1650.58" as="targetPoint" />
            <Array as="points">
              <mxPoint x="820" y="2258" />
              <mxPoint x="820" y="1651" />
            </Array>
          </mxGeometry>
        </mxCell>
        <mxCell id="E6n0hDkASvJldRAavrut-661" value="" style="fontSize=12;html=1;endArrow=ERoneToMany;startArrow=ERzeroToOne;rounded=0;fontFamily=Helvetica;fontColor=default;exitX=1;exitY=0;exitDx=0;exitDy=0;entryX=1;entryY=0.5;entryDx=0;entryDy=0;edgeStyle=orthogonalEdgeStyle;exitPerimeter=0;" edge="1" parent="WIyWlLk6GJQsqaUBKTNV-1">
          <mxGeometry width="100" height="100" relative="1" as="geometry">
            <mxPoint x="780" y="2320" as="sourcePoint" />
            <mxPoint x="1220.0000000000005" y="1505" as="targetPoint" />
            <Array as="points">
              <mxPoint x="1250" y="2320" />
              <mxPoint x="1250" y="1505" />
            </Array>
          </mxGeometry>
        </mxCell>
        <mxCell id="E6n0hDkASvJldRAavrut-662" value="" style="fontSize=12;html=1;endArrow=ERoneToMany;startArrow=ERzeroToOne;rounded=0;fontFamily=Helvetica;fontColor=default;exitX=1;exitY=0.5;exitDx=0;exitDy=0;entryX=1.011;entryY=0.042;entryDx=0;entryDy=0;edgeStyle=orthogonalEdgeStyle;entryPerimeter=0;" edge="1" parent="WIyWlLk6GJQsqaUBKTNV-1">
          <mxGeometry width="100" height="100" relative="1" as="geometry">
            <mxPoint x="780" y="2365" as="sourcePoint" />
            <mxPoint x="991.98" y="1391.26" as="targetPoint" />
            <Array as="points">
              <mxPoint x="1260" y="2365" />
              <mxPoint x="1260" y="1391" />
            </Array>
          </mxGeometry>
        </mxCell>
        <mxCell id="E6n0hDkASvJldRAavrut-663" value="" style="edgeStyle=orthogonalEdgeStyle;fontSize=12;html=1;endArrow=ERoneToMany;startArrow=ERzeroToOne;rounded=0;fontFamily=Helvetica;fontColor=default;exitX=0;exitY=0.5;exitDx=0;exitDy=0;entryX=0.149;entryY=1.009;entryDx=0;entryDy=0;entryPerimeter=0;" edge="1" parent="WIyWlLk6GJQsqaUBKTNV-1">
          <mxGeometry width="100" height="100" relative="1" as="geometry">
            <mxPoint x="600" y="2243.4700000000003" as="sourcePoint" />
            <mxPoint x="400.3299999999999" y="1510" as="targetPoint" />
            <Array as="points">
              <mxPoint x="400" y="2243.19" />
              <mxPoint x="400" y="1519.19" />
              <mxPoint x="400" y="1519.19" />
            </Array>
          </mxGeometry>
        </mxCell>
        <mxCell id="E6n0hDkASvJldRAavrut-664" value="" style="edgeStyle=orthogonalEdgeStyle;fontSize=12;html=1;endArrow=ERoneToMany;startArrow=ERzeroToOne;rounded=0;fontFamily=Helvetica;fontColor=default;exitX=0;exitY=0.5;exitDx=0;exitDy=0;entryX=0.257;entryY=0.989;entryDx=0;entryDy=0;entryPerimeter=0;" edge="1" parent="WIyWlLk6GJQsqaUBKTNV-1">
          <mxGeometry width="100" height="100" relative="1" as="geometry">
            <mxPoint x="600" y="2305" as="sourcePoint" />
            <mxPoint x="376.2600000000002" y="1269.67" as="targetPoint" />
            <Array as="points">
              <mxPoint x="376" y="2305" />
            </Array>
          </mxGeometry>
        </mxCell>
        <mxCell id="E6n0hDkASvJldRAavrut-665" value="" style="edgeStyle=orthogonalEdgeStyle;fontSize=12;html=1;endArrow=ERoneToMany;startArrow=ERzeroToOne;rounded=0;fontFamily=Helvetica;fontColor=default;exitX=-0.004;exitY=0.067;exitDx=0;exitDy=0;entryX=0;entryY=0.5;entryDx=0;entryDy=0;exitPerimeter=0;" edge="1" parent="WIyWlLk6GJQsqaUBKTNV-1">
          <mxGeometry width="100" height="100" relative="1" as="geometry">
            <mxPoint x="599.2800000000002" y="2172.01" as="sourcePoint" />
            <mxPoint x="600" y="1355" as="targetPoint" />
            <Array as="points">
              <mxPoint x="570" y="2172" />
              <mxPoint x="570" y="1355" />
            </Array>
          </mxGeometry>
        </mxCell>
        <mxCell id="E6n0hDkASvJldRAavrut-666" value="Cart" style="whiteSpace=wrap;html=1;align=center;strokeColor=inherit;verticalAlign=middle;fontFamily=Helvetica;fontSize=16;fontColor=default;fillColor=none;" vertex="1" parent="WIyWlLk6GJQsqaUBKTNV-1">
          <mxGeometry x="1045" y="1460" width="170" height="90" as="geometry" />
        </mxCell>
        <mxCell id="E6n0hDkASvJldRAavrut-667" value="User" style="whiteSpace=wrap;html=1;align=center;strokeColor=inherit;verticalAlign=middle;fontFamily=Helvetica;fontSize=16;fontColor=default;fillColor=none;" vertex="1" parent="WIyWlLk6GJQsqaUBKTNV-1">
          <mxGeometry x="600" y="1280" width="180" height="210" as="geometry" />
        </mxCell>
        <mxCell id="E6n0hDkASvJldRAavrut-668" value="Role" style="whiteSpace=wrap;html=1;align=center;strokeColor=inherit;verticalAlign=middle;fontFamily=Helvetica;fontSize=16;fontColor=default;fillColor=none;" vertex="1" parent="WIyWlLk6GJQsqaUBKTNV-1">
          <mxGeometry x="810" y="1360" width="180" height="80" as="geometry" />
        </mxCell>
        <mxCell id="E6n0hDkASvJldRAavrut-669" value="Coupon" style="whiteSpace=wrap;html=1;align=center;strokeColor=inherit;verticalAlign=middle;fontFamily=Helvetica;fontSize=16;fontColor=default;fillColor=none;" vertex="1" parent="WIyWlLk6GJQsqaUBKTNV-1">
          <mxGeometry x="335" y="1190" width="170" height="80" as="geometry" />
        </mxCell>
        <mxCell id="E6n0hDkASvJldRAavrut-670" value="Category" style="whiteSpace=wrap;html=1;align=center;strokeColor=inherit;verticalAlign=middle;fontFamily=Helvetica;fontSize=16;fontColor=default;fillColor=none;" vertex="1" parent="WIyWlLk6GJQsqaUBKTNV-1">
          <mxGeometry x="840" y="1610" width="170" height="80" as="geometry" />
        </mxCell>
        <mxCell id="E6n0hDkASvJldRAavrut-671" value="Provider" style="whiteSpace=wrap;html=1;align=center;strokeColor=inherit;verticalAlign=middle;fontFamily=Helvetica;fontSize=16;fontColor=default;fillColor=none;" vertex="1" parent="WIyWlLk6GJQsqaUBKTNV-1">
          <mxGeometry x="610" y="1550" width="170" height="80" as="geometry" />
        </mxCell>
        <mxCell id="E6n0hDkASvJldRAavrut-672" value="Order" style="whiteSpace=wrap;html=1;align=center;strokeColor=inherit;verticalAlign=middle;fontFamily=Helvetica;fontSize=16;fontColor=default;fillColor=none;" vertex="1" parent="WIyWlLk6GJQsqaUBKTNV-1">
          <mxGeometry x="385" y="1420" width="170" height="90" as="geometry" />
        </mxCell>
        <mxCell id="E6n0hDkASvJldRAavrut-673" value="OrderBook" style="whiteSpace=wrap;html=1;align=center;strokeColor=inherit;verticalAlign=middle;fontFamily=Helvetica;fontSize=16;fontColor=default;fillColor=none;" vertex="1" parent="WIyWlLk6GJQsqaUBKTNV-1">
          <mxGeometry x="420" y="1650" width="110" height="80" as="geometry" />
        </mxCell>
        <mxCell id="E6n0hDkASvJldRAavrut-674" value="" style="fontSize=12;html=1;endArrow=ERoneToMany;startArrow=ERmandOne;rounded=0;fontFamily=Helvetica;fontColor=default;exitX=0.5;exitY=1;exitDx=0;exitDy=0;" edge="1" parent="WIyWlLk6GJQsqaUBKTNV-1" source="E6n0hDkASvJldRAavrut-672">
          <mxGeometry width="100" height="100" relative="1" as="geometry">
            <mxPoint x="430" y="2050" as="sourcePoint" />
            <mxPoint x="468" y="1650" as="targetPoint" />
          </mxGeometry>
        </mxCell>
        <mxCell id="E6n0hDkASvJldRAavrut-675" value="" style="fontSize=12;html=1;endArrow=ERzeroToMany;startArrow=ERmandOne;rounded=0;edgeStyle=elbowEdgeStyle;entryX=0;entryY=0.5;entryDx=0;entryDy=0;" edge="1" parent="WIyWlLk6GJQsqaUBKTNV-1">
          <mxGeometry width="100" height="100" relative="1" as="geometry">
            <mxPoint x="470" y="1730" as="sourcePoint" />
            <mxPoint x="600" y="1875" as="targetPoint" />
            <Array as="points">
              <mxPoint x="470" y="1800" />
            </Array>
          </mxGeometry>
        </mxCell>
        <mxCell id="E6n0hDkASvJldRAavrut-676" value="Review" style="whiteSpace=wrap;html=1;align=center;strokeColor=inherit;verticalAlign=middle;fontFamily=Helvetica;fontSize=16;fontColor=default;fillColor=none;" vertex="1" parent="WIyWlLk6GJQsqaUBKTNV-1">
          <mxGeometry x="150" y="1420" width="170" height="130" as="geometry" />
        </mxCell>
        <mxCell id="E6n0hDkASvJldRAavrut-677" value="ProviderBook" style="whiteSpace=wrap;html=1;align=center;strokeColor=inherit;verticalAlign=middle;fontFamily=Helvetica;fontSize=16;fontColor=default;fillColor=none;" vertex="1" parent="WIyWlLk6GJQsqaUBKTNV-1">
          <mxGeometry x="610" y="1670" width="170" height="120" as="geometry" />
        </mxCell>
        <mxCell id="E6n0hDkASvJldRAavrut-678" value="Book" style="whiteSpace=wrap;html=1;align=center;strokeColor=inherit;verticalAlign=middle;fontFamily=Helvetica;fontSize=16;fontColor=default;fillColor=none;" vertex="1" parent="WIyWlLk6GJQsqaUBKTNV-1">
          <mxGeometry x="605" y="1830" width="170" height="120" as="geometry" />
        </mxCell>
        <mxCell id="E6n0hDkASvJldRAavrut-679" value="Author" style="whiteSpace=wrap;html=1;align=center;strokeColor=inherit;verticalAlign=middle;fontFamily=Helvetica;fontSize=16;fontColor=default;fillColor=none;" vertex="1" parent="WIyWlLk6GJQsqaUBKTNV-1">
          <mxGeometry x="600" y="1990" width="170" height="90" as="geometry" />
        </mxCell>
        <mxCell id="E6n0hDkASvJldRAavrut-680" value="Audit_Log" style="whiteSpace=wrap;html=1;align=center;strokeColor=inherit;verticalAlign=middle;fontFamily=Helvetica;fontSize=16;fontColor=default;fillColor=none;" vertex="1" parent="WIyWlLk6GJQsqaUBKTNV-1">
          <mxGeometry x="610" y="2150" width="170" height="240" as="geometry" />
        </mxCell>
        <mxCell id="E6n0hDkASvJldRAavrut-681" value="BookCategory" style="whiteSpace=wrap;html=1;align=center;strokeColor=inherit;verticalAlign=middle;fontFamily=Helvetica;fontSize=16;fontColor=default;fillColor=none;" vertex="1" parent="WIyWlLk6GJQsqaUBKTNV-1">
          <mxGeometry x="840" y="1760" width="170" height="100" as="geometry" />
        </mxCell>
        <mxCell id="E6n0hDkASvJldRAavrut-682" value="CartBook" style="whiteSpace=wrap;html=1;align=center;strokeColor=inherit;verticalAlign=middle;fontFamily=Helvetica;fontSize=16;fontColor=default;fillColor=none;" vertex="1" parent="WIyWlLk6GJQsqaUBKTNV-1">
          <mxGeometry x="1040" y="1840" width="170" height="95" as="geometry" />
        </mxCell>
      </root>
    </mxGraphModel>
  </diagram>
</mxfile>
